<svg width="23" height="19" viewBox="0 0 23 19" fill="none" xmlns="http://www.w3.org/2000/svg">
<path d="M0.84 11V2.42H8.028C8.916 2.42 9.604 2.644 10.092 3.092C10.588 3.54 10.836 4.22 10.836 5.132C10.836 5.908 10.656 6.516 10.296 6.956C9.936 7.396 9.424 7.672 8.76 7.784L10.74 11H8.556L6.72 7.844H2.76V11H0.84ZM7.8 3.98H2.76V6.272L7.8 6.284C8.152 6.284 8.42 6.196 8.604 6.02C8.796 5.844 8.892 5.548 8.892 5.132C8.892 4.708 8.796 4.412 8.604 4.244C8.42 4.068 8.152 3.98 7.8 3.98Z" fill="#155DFC"/>
<path d="M16.2836 15.1058C14.6996 15.0919 13.4909 14.7172 12.6573 13.9819C11.8238 13.2385 11.4134 12.1469 11.426 10.7069C11.4386 9.27496 11.8682 8.1947 12.7146 7.46611C13.561 6.73752 14.7762 6.38419 16.36 6.40612L20.6797 6.46809L20.6662 8.00403L16.4783 7.96722C15.4384 7.95807 14.6645 8.17128 14.1566 8.60683C13.6488 9.04238 13.3906 9.74814 13.382 10.7241C13.3734 11.7001 13.6191 12.4143 14.1192 12.8667C14.6193 13.3111 15.3893 13.5379 16.4293 13.547L20.7371 13.5849L20.7234 15.1448L16.2836 15.1058Z" fill="#155DFC"/>
<line x1="9" y1="10.25" x2="13" y2="10.25" stroke="#155DFC" stroke-width="1.5"/>
</svg>
